# AST/ASF file generated using VICON BodyLanguage
# -----------------------------------------------
:version 1.10
:name VICON
:units
  mass 1.0
  length 0.45
  angle deg
:documentation
   .ast/.asf automatically generated from VICON data using
   VICON BodyBuilder and BodyLanguage model FoxedUp or BRILLIANT.MOD
:root
   order TX TY TZ RX RY RZ
   axis XYZ
   position 0 0 0  
   orientation 0 0 0 
:bonedata
  begin
     id 1 
     name lhipjoint
     direction 0.611823 -0.767273 0.19226 
     length 2.47422 
     axis 0 0 0  XYZ
  end
  begin
     id 2 
     name lfemur
     direction 0.34202 -0.939693 0  
     length 7.40835  
     axis 0 0 20  XYZ
    dof rx ry rz
    limits (-160.0 20.0)
           (-70.0 70.0)
           (-60.0 70.0)
  end
  begin
     id 3 
     name ltibia
     direction 0.34202 -0.939693 0   
     length 8.03679   
     axis 0 0 20   XYZ
    dof rx
    limits (-10.0 170.0)
  end
  begin
     id 4 
     name lfoot
     direction 0.0883598 -0.242766 0.966052   
     length 2.06694   
     axis -90 7.62852e-016 20   XYZ
    dof rx rz
    limits (-45.0 90.0)
           (-70.0 20.0)
  end
  begin
     id 5 
     name ltoes
     direction 1.53617e-011 -4.21699e-011 1   
     length 1.03711   
     axis -90 7.62852e-016 20   XYZ
    dof rx
    limits (-90.0 20.0)
  end
  begin
     id 6 
     name rhipjoint
     direction -0.590066 -0.783143 0.196236   
     length 2.42408  
     axis 0 0 0  XYZ 
  end
  begin
     id 7 
     name rfemur
     direction -0.34202 -0.939693 0   
     length 7.88987   
     axis 0 0 -20   XYZ
    dof rx ry rz
    limits (-160.0 20.0)
           (-70.0 70.0)
           (-70.0 60.0)
  end
  begin
     id 8 
     name rtibia
     direction -0.34202 -0.939693 0   
     length 7.87584   
     axis 0 0 -20   XYZ
    dof rx
    limits (-10.0 170.0)
 end
 begin
     id 9 
     name rfoot
     direction -0.130476 -0.358481 0.924374   
     length 2.21745  
     axis -90 -7.62852e-016 -20   XYZ
    dof rx rz
    limits (-45.0 90.0)
           (-20.0 70.0)
  end
  begin
     id 10 
     name rtoes
     direction 8.20695e-005 8.89091e-005 1   
     length 1.09536   
     axis -90 -7.62852e-016 -20   XYZ
    dof rx
    limits (-90.0 20.0)
  end
  begin
     id 11 
     name lowerback
     direction 0.00981224 0.999875 -0.0124197   
     length 1.94808   
     axis 0 0 0   XYZ
    dof rx ry rz
    limits (-20.0 45.0)
           (-30.0 30.0)
           (-30.0 30.0)
  end
  begin
     id 12 
     name upperback
     direction 0.038911 0.999194 0.00981686   
     length 1.94415   
     axis 0 0 0   XYZ
    dof rx ry rz
    limits (-20.0 45.0)
           (-30.0 30.0)
           (-30.0 30.0)
  end
  begin
     id 13 
     name thorax
     direction 0.0330692 0.999334 0.0154389   
     length 1.94117   
     axis 0 0 0   XYZ
    dof rx ry rz
    limits (-20.0 45.0)
           (-30.0 30.0)
           (-30.0 30.0)
  end
  begin
     id 14 
     name lowerneck
     direction -0.0374305 0.99415 0.10132   
     length 1.87291   
     axis 0 0 0   XYZ
    dof rx ry rz
    limits (-20.0 45.0)
           (-30.0 30.0)
           (-30.0 30.0)
  end
  begin
     id 15 
     name upperneck
     direction 0.0120692 0.985979 -0.166431   
     length 1.89248   
     axis 0 0 0   XYZ
    dof rx ry rz
    limits (-20.0 45.0)
           (-30.0 30.0)
           (-30.0 30.0)
  end
  begin
     id 16
     name head
     direction 0.00629908 0.997708 -0.06737  
     length 1.90559  
     axis 0 0 0   XYZ
    dof rx ry rz
    limits (-20.0 45.0)
           (-30.0 30.0)
           (-30.0 30.0)
  end
  begin
     id 17 
     name lclavicle
     direction 0.961536 0.27308 -0.0295863  
     length 3.52757  
     axis 0 0 0   XYZ
    dof ry rz
    limits (-20.0 10.0)
           (0.0 20.0)
  end
  begin
     id 18 
     name lhumerus
     direction 1 -4.48969e-011 2.61153e-029   
     length 5.14845   
     axis 180 -30 -90   XYZ
    dof rx ry rz
    limits (-60.0 90.0)
           (-90.0 90.0)
           (-90.0 90.0)
  end
  begin
     id 19
     name lradius
     direction 1 -4.4896e-011 -3.37549e-027   
     length 3.43674   
     axis 180 -30 -90   XYZ
    dof rx
    limits (-10.0 170.0)
  end
  begin
     id 20
     name lwrist
     direction 1 -4.48969e-011 2.56952e-028   
     length 1.71837   
     axis -5.12785e-016 90 90   XYZ
    dof ry
    limits (-180.0 0.0)
 end
  begin
     id 21 
     name lhand
     direction 1 -4.49094e-011 5.13905e-028   
     length 0.588709   
     axis -3.27915e-016 90 90   XYZ
    dof rx rz
    limits (-90.0 90.0)
           (-45.0 45.0)
  end
  begin
     id 22 
     name lfingers
     direction 1 -4.48821e-011 1.02781e-027   
     length 0.474633   
     axis -6.5583e-016 90 90   XYZ
    dof rx
    limits (0.0 90.0)
  end
  begin
     id 23
     name lthumb
     direction 0.707107 -6.34922e-011 0.707107   
     length 0.68148   
     axis -90 45 2.85299e-015   XYZ
    dof rx rz
    limits (-45.0 45.0)
           (-45.0 45.0)
  end
  begin
     id 24 
     name rclavicle
     direction -0.940964 0.333844 -0.0559866   
     length 3.55948  
     axis 0 0 0   XYZ 
    dof ry rz
    limits (-10.0 20.0)
           (-20.0 0.0)
  end
  begin
     id 25 
     name rhumerus
     direction -1 -4.48973e-011 3.15259e-027  
     length 5.42185   
     axis 180 30 90   XYZ
    dof rx ry rz
    limits (-90.0 60.0)
           (-90.0 90.0)
           (-90.0 90.0)
  end
  begin
     id 26 
     name rradius
     direction -1 -4.48954e-011 -2.56271e-027   
     length 3.51317   
     axis 180 30 90   XYZ
    dof rx
    limits (-10.0 170.0)
  end
  begin
     id 27 
     name rwrist
     direction -1 -4.48943e-011 2.56952e-028   
     length 1.75658   
     axis -5.12785e-016 -90 -90   XYZ
    dof ry
    limits (-180.0 0.0)
  end
  begin
     id 28
     name rhand
     direction -1 -4.4912e-011 5.13905e-028   
     length 0.663187   
     axis -3.27915e-016 -90 -90   XYZ
    dof rx rz
    limits (-90.0 90.0)
           (-45.0 45.0)
  end
  begin
     id 29
     name rfingers
     direction -1 -4.48914e-011 1.02781e-027   
     length 0.534679   
     axis -6.5583e-016 -90 -90   XYZ
    dof rx
    limits (0.0 90.0)
  end
  begin
     id 30
     name rthumb
     direction -0.707107 -6.35033e-011 0.707107   
     length 0.767695   
     axis -90 -45 -2.85299e-015   XYZ
    dof rx rz
    limits (-45.0 45.0)
           (-45.0 45.0)
  end
:hierarchy
  begin
    root lhipjoint rhipjoint lowerback
    lhipjoint lfemur
    lfemur ltibia
    ltibia lfoot
    lfoot ltoes
    rhipjoint rfemur
    rfemur rtibia
    rtibia rfoot
    rfoot rtoes
    lowerback upperback
    upperback thorax
    thorax lowerneck lclavicle rclavicle
    lowerneck upperneck
    upperneck head
    lclavicle lhumerus
    lhumerus lradius
    lradius lwrist
    lwrist lhand lthumb
    lhand lfingers
    rclavicle rhumerus
    rhumerus rradius
    rradius rwrist
    rwrist rhand rthumb
    rhand rfingers
  end

#!OML:ASF F:\VICON\USERDATA\INSTALL\Justin_a\Justin_a.ASF
:FULLY-SPECIFIED
:DEGREES
2029
root -1.233 17.9892 -0.102895 12.4411 -50.1405 -6.98524
lowerback 0.014453 1.60557 1.15946
upperback -0.0993871 2.11478 4.08579
thorax -0.222722 1.04626 3.54226
lowerneck -14.2806 -0.207994 -2.79763
upperneck 31.4727 1.60441 -4.71598
head 12.9254 -0.409175 -1.13491
rclavicle -6.84813e-014 -4.29375e-014
rhumerus -28.9262 -5.64597 -80.7763
rradius 36.8102
rwrist -8.27605
rhand -27.0285 12.5332
rfingers 7.12502
rthumb -0.447618 -17.446
lclavicle -6.84813e-014 -4.29375e-014
lhumerus -39.3909 10.1144 86.2488
lradius 35.1891
lwrist 7.16922
lhand -16.6271 25.1228
lfingers 7.12502
lthumb 9.59513 54.8843
rfemur -13.0205 2.49933 30.8453
rtibia 31.4046
rfoot -25.7866 -4.81742
rtoes 0.0539984
lfemur -36.7773 0.751456 -14.6129
ltibia 47.644
lfoot -10.349 5.02734
ltoes -10.8259
2030
root -1.33803 17.9855 -0.00239685 12.4876 -50.1718 -6.97998
lowerback -0.107659 1.66015 1.17882
upperback -0.105586 2.18392 4.03846
thorax -0.161696 1.08087 3.48577
lowerneck -14.2627 -0.216917 -2.77323
upperneck 31.4888 1.57136 -4.67408
head 12.9268 -0.415085 -1.12796
rclavicle -7.05686e-015 -2.06736e-014
rhumerus -28.5964 -5.71455 -80.7646
rradius 37.1171
rwrist -8.34293
rhand -26.8082 12.5033
rfingers 7.12502
rthumb -0.234816 -17.4764
lclavicle -7.05686e-015 -2.06736e-014
lhumerus -39.4751 10.1591 86.1879
lradius 34.7879
lwrist 7.04033
lhand -16.8718 24.9058
lfingers 7.12502
lthumb 9.35905 54.6781
rfemur -12.4274 2.46121 30.8138
rtibia 31.1951
rfoot -26.1745 -4.98227
rtoes -0.905072
lfemur -36.7466 0.57049 -14.5212
ltibia 45.2288
lfoot -10.0632 5.20778
ltoes -11.3912
2031
root -1.44471 17.9855 0.0985741 12.5272 -50.3108 -6.87531
lowerback -0.274965 1.73048 1.0724
upperback -0.136029 2.27433 3.98322
thorax -0.105757 1.12673 3.49314
lowerneck -14.2729 -0.221447 -2.66522
upperneck 31.5467 1.57312 -4.78834
head 12.9552 -0.418609 -1.19241
rclavicle -3.54831e-014 -4.45278e-014
rhumerus -28.2522 -5.69251 -80.7826
rradius 37.3778
rwrist -8.45819
rhand -26.78 12.6289
rfingers 7.12502
rthumb -0.207641 -17.3508
lclavicle -3.54831e-014 -4.45278e-014
lhumerus -39.5804 10.3109 86.0812
lradius 34.4491
lwrist 7.07765
lhand -16.7708 25.1381
lfingers 7.12502
lthumb 9.45647 54.9059
rfemur -11.8952 2.68797 30.6864
rtibia 30.9625
rfoot -26.427 -5.1643
rtoes -1.8844
lfemur -36.7136 0.366211 -14.495
ltibia 42.6965
lfoot -9.69621 5.46922
ltoes -10.1305
2032
root -1.54874 17.9757 0.198613 12.8771 -50.4989 -7.18435
lowerback -0.365511 1.80081 1.19884
upperback -0.181979 2.36537 4.0135
thorax -0.103107 1.17194 3.45556
lowerneck -14.2366 -0.16501 -2.54674
upperneck 31.603 1.67023 -4.94399
head 12.9755 -0.384572 -1.2604
rclavicle 4.30369e-014 -8.74653e-015
rhumerus -27.9362 -5.3916 -80.8877
rradius 37.6686
rwrist -8.67493
rhand -26.949 12.5419
rfingers 7.12502
rthumb -0.370803 -17.4375
lclavicle 4.30369e-014 -8.74653e-015
lhumerus -39.8107 10.6556 85.9114
lradius 34.2108
lwrist 6.98252
lhand -16.5776 25.6297
lfingers 7.12502
lthumb 9.64292 55.389
rfemur -11.3539 2.97134 30.8425
rtibia 30.679
rfoot -26.3613 -4.95213
rtoes -0.726294
lfemur -36.6574 0.376555 -14.1909
ltibia 40.1055
lfoot -9.23141 5.55565
ltoes -7.9376
2033
root -1.65591 17.969 0.302153 13.1079 -50.6965 -7.389
lowerback -0.428543 1.89431 1.2658
upperback -0.258072 2.49008 4.03376
thorax -0.150323 1.23456 3.4396
lowerneck -14.1243 -0.147078 -2.6272
upperneck 31.6953 1.70085 -4.90508
head 12.9903 -0.378188 -1.22845
rclavicle -7.31528e-014 -1.35174e-014
rhumerus -27.7307 -5.39317 -80.8787
rradius 37.8932
rwrist -8.57425
rhand -26.9519 12.5946
rfingers 7.12502
rthumb -0.373615 -17.3848
lclavicle -7.31528e-014 -1.35174e-014
lhumerus -40.1376 11.0688 85.714
lradius 33.881
lwrist 6.57429
lhand -16.5306 25.4462
lfingers 7.12502
lthumb 9.68828 55.2034
rfemur -10.7298 3.19871 30.9211
rtibia 30.3753
rfoot -26.4639 -4.76126
rtoes 0.267159
lfemur -36.4361 0.377713 -13.9847
ltibia 37.4023
lfoot -8.50144 5.68068
ltoes -9.32073
2034
root -1.76098 17.96 0.407287 13.5224 -50.8357 -7.81959
lowerback -0.660446 1.98155 1.50836
upperback -0.185776 2.59057 4.11052
thorax 0.056031 1.28273 3.39349
lowerneck -14.2049 -0.170111 -2.77764
upperneck 31.7358 1.68206 -4.79623
head 13.0227 -0.391731 -1.164
rclavicle -1.00386e-013 2.06736e-014
rhumerus -27.3086 -5.38243 -80.8248
rradius 38.1483
rwrist -8.67489
rhand -26.9617 12.6248
rfingers 7.12502
rthumb -0.383075 -17.3546
lclavicle -1.00386e-013 2.06736e-014
lhumerus -40.1107 11.5081 85.6111
lradius 33.4048
lwrist 6.10228
lhand -16.4506 24.9586
lfingers 7.12502
lthumb 9.76543 54.7122
rfemur -10.0835 3.4835 31.1708
rtibia 30.0557
rfoot -26.6269 -4.68985
rtoes 1.03888
lfemur -36.1497 0.169365 -13.5525
ltibia 34.6161
lfoot -7.77058 5.94009
ltoes -11.3682
2035
root -1.86937 17.958 0.514322 13.6374 -50.9924 -7.82375
lowerback -0.733075 2.00513 1.42355
upperback -0.306736 2.62498 4.12265
thorax -0.033485 1.30087 3.45385
lowerneck -14.1465 -0.105277 -2.82919
upperneck 31.9462 1.77466 -4.74832
head 13.0999 -0.358829 -1.12743
rclavicle 1.00386e-014 3.18055e-015
rhumerus -27.1386 -5.20772 -80.7855
rradius 38.2896
rwrist -8.94276
rhand -26.8056 12.8397
rfingers 7.12502
rthumb -0.232377 -17.1399
lclavicle 1.00386e-014 3.18055e-015
lhumerus -40.4341 11.8906 85.39
lradius 32.9589
lwrist 5.70822
lhand -16.1803 24.766
lfingers 7.12502
lthumb 10.0263 54.5072
rfemur -9.48179 3.64049 31.1266
rtibia 29.7146
rfoot -26.6833 -4.69214
rtoes 0.96463
lfemur -35.786 -0.275696 -13.3194
ltibia 31.7003
lfoot -7.21814 6.17793
ltoes -11.6856
2036
root -1.97888 17.9541 0.621288 13.7379 -51.1205 -7.78646
lowerback -0.898764 2.08911 1.37187
upperback -0.371991 2.73479 4.05502
thorax -0.0121643 1.35656 3.41851
lowerneck -14.093 -0.080561 -2.67049
upperneck 32.0367 1.78352 -4.80659
head 13.1277 -0.345949 -1.17844
rclavicle 4.11484e-014 1.43125e-014
rhumerus -26.9235 -5.29768 -80.7677
rradius 38.4601
rwrist -9.07842
rhand -26.7754 12.9839
rfingers 7.12502
rthumb -0.203193 -16.9957
lclavicle 4.11484e-014 1.43125e-014
lhumerus -40.5984 11.8855 85.2936
lradius 32.5734
lwrist 5.60607
lhand -16.2003 25.178
lfingers 7.12502
lthumb 10.0069 54.9201
rfemur -8.90236 3.70732 31.0669
rtibia 29.3385
rfoot -26.6599 -4.88642
rtoes 0.160879
lfemur -35.3815 -0.70906 -13.1192
ltibia 28.695
lfoot -6.74659 6.46162
ltoes -12.7821
2037
root -2.08838 17.9398 0.729891 13.9005 -51.2543 -7.8261
lowerback -1.07275 2.15537 1.3481
upperback -0.42559 2.81946 4.01341
thorax 0.0270903 1.39929 3.39531
lowerneck -14.1073 -0.0445599 -2.58505
upperneck 32.1692 1.81066 -4.79002
head 13.1872 -0.326056 -1.18606
rclavicle -2.2741e-013 7.95139e-016
rhumerus -26.7071 -5.27312 -80.7966
rradius 38.6052
rwrist -9.13706
rhand -26.7167 13.1435
rfingers 7.12502
rthumb -0.146472 -16.8362
lclavicle -2.2741e-013 7.95139e-016
lhumerus -40.7659 12.0653 85.1322
lradius 32.1828
lwrist 5.42506
lhand -16.2007 25.3565
lfingers 7.12502
lthumb 10.0065 55.0986
rfemur -8.32337 3.75394 31.0691
rtibia 28.9592
rfoot -26.5848 -5.37779
rtoes -1.79217
lfemur -34.9106 -1.10982 -12.8776
ltibia 25.5995
lfoot -6.32526 6.74099
ltoes -14.4241
2038
root -2.19736 17.9292 0.84122 14.3503 -51.3889 -8.19331
lowerback -1.28939 2.18262 1.48502
upperback -0.492641 2.84594 4.10354
thorax 0.0804227 1.41161 3.4196
lowerneck -14.1657 0.0364848 -2.53711
upperneck 32.3557 1.95168 -4.87947
head 13.2844 -0.278366 -1.2134
rclavicle -1.2424e-014 -4.13472e-014
rhumerus -26.5361 -4.94072 -80.804
rradius 38.8367
rwrist -9.39782
rhand -26.8179 12.968
rfingers 7.12502
rthumb -0.24417 -17.0116
lclavicle -1.2424e-014 -4.13472e-014
lhumerus -41.0371 12.5082 84.9215
lradius 31.8166
lwrist 5.10924
lhand -16.3122 25.0241
lfingers 7.12502
lthumb 9.89896 54.7714
rfemur -7.75764 3.66279 31.2459
rtibia 28.5525
rfoot -26.5729 -5.47153
rtoes -2.7921
lfemur -34.423 -1.55073 -12.3336
ltibia 22.4942
lfoot -6.26454 7.2102
ltoes -13.4682
